<?xml version="1.0" encoding="utf-8"?>
<!-- Generator: Adobe Illustrator 25.0.0, SVG Export Plug-In . SVG Version: 6.00 Build 0)  -->
<svg version="1.1" id="Слой_1" xmlns="http://www.w3.org/2000/svg" xmlns:xlink="http://www.w3.org/1999/xlink" x="0px" y="0px"
	 viewBox="0 0 297.64 392.4" style="enable-background:new 0 0 297.64 392.4;" xml:space="preserve">
<style type="text/css">
	.st0{fill:#F9B233;}
</style>
<g>
	<path class="st0" d="M232.69,273.36c0,48.94-39.73,88.68-88.68,88.68s-88.68-39.73-88.68-88.68h34.55
		c0,29.94,24.18,54.13,54.13,54.13s54.13-24.18,54.13-54.13H232.69z M144.3,253.78c-48.94,0-88.68-39.73-88.68-88.68
		c0-48.94,39.73-88.68,88.68-88.68c11.52,0,22.74,2.3,32.82,6.33c10.36-30.23,39.16-52.4,72.55-52.4v35.13
		c-21.59,0-39.73,16.99-41.17,38.58c15.26,15.84,24.47,37.43,24.47,61.04C232.98,214.05,193.25,253.78,144.3,253.78z M144.3,110.98
		c-29.94,0-54.13,24.18-54.13,54.13c0,29.94,24.18,54.13,54.13,54.13c29.94,0,54.13-24.18,54.13-54.13
		C198.43,135.16,174.24,110.98,144.3,110.98z"/>
</g>
</svg>
